<svg width="19" height="15" viewBox="0 0 19 15" fill="none" xmlns="http://www.w3.org/2000/svg">
<path fill-rule="evenodd" clip-rule="evenodd" d="M7.25 9.75L16.25 0.75L18.5 3L9.5 12L7.25 9.75ZM5 12L7.25 9.75L2.75 5.25L0.5 7.5L5 12Z" fill="white"/>
<path fill-rule="evenodd" clip-rule="evenodd" d="M7.25 9.75L16.25 0.75L18.5 3L9.5 12L7.25 9.75ZM5 12L7.25 9.75L2.75 5.25L0.5 7.5L5 12Z" fill="#00CD2D" fill-opacity="0.1"/>
<path d="M5 12L7.25 14.25L9.5 12L7.25 9.75L5 12Z" fill="white"/>
<path d="M5 12L7.25 14.25L9.5 12L7.25 9.75L5 12Z" fill="#00CD2D" fill-opacity="0.1"/>
</svg>
